G04*
G04 #@! TF.GenerationSoftware,Altium Limited,Altium Designer,24.0.1 (36)*
G04*
G04 Layer_Physical_Order=2*
G04 Layer_Color=16711680*
%FSLAX44Y44*%
%MOMM*%
G71*
G04*
G04 #@! TF.SameCoordinates,DD3A43BD-7995-492C-8043-5AFFBE794F34*
G04*
G04*
G04 #@! TF.FilePolarity,Positive*
G04*
G01*
G75*
%ADD11C,0.2540*%
%ADD13R,0.7000X0.7000*%
%ADD14R,1.2000X0.9000*%
%ADD19O,2.0000X1.6000*%
%ADD20R,2.0000X1.6000*%
%ADD21C,0.6000*%
G36*
X188000Y10000D02*
X10000D01*
Y195000D01*
X188000D01*
Y10000D01*
D02*
G37*
%LPC*%
G36*
X143000Y166354D02*
X108500D01*
X106834Y166022D01*
X105421Y165079D01*
X92843Y152500D01*
X81000D01*
Y137500D01*
X99000D01*
Y146343D01*
X110303Y157646D01*
X114646D01*
Y152500D01*
X110000D01*
Y137500D01*
X128000D01*
Y152500D01*
X123354D01*
Y157646D01*
X141197D01*
X155646Y143197D01*
Y126400D01*
X147000D01*
Y104400D01*
X173000D01*
Y126400D01*
X164354D01*
Y145000D01*
X164022Y146666D01*
X163078Y148078D01*
X146079Y165079D01*
X144666Y166022D01*
X143000Y166354D01*
D02*
G37*
G36*
X162000Y100631D02*
X161270D01*
Y91270D01*
X172464D01*
X172269Y92752D01*
X171207Y95316D01*
X169517Y97517D01*
X167316Y99207D01*
X164751Y100269D01*
X162000Y100631D01*
D02*
G37*
G36*
X158730D02*
X158000D01*
X155248Y100269D01*
X152684Y99207D01*
X150483Y97517D01*
X148793Y95316D01*
X147731Y92752D01*
X147536Y91270D01*
X158730D01*
Y100631D01*
D02*
G37*
G36*
X128000Y131500D02*
X110000D01*
Y116500D01*
X115146D01*
Y90500D01*
X113500D01*
Y77500D01*
X126500D01*
Y90500D01*
X123854D01*
Y116500D01*
X128000D01*
Y131500D01*
D02*
G37*
G36*
X99000D02*
X81000D01*
Y116500D01*
X85646D01*
Y90500D01*
X83500D01*
Y77500D01*
X96500D01*
Y90500D01*
X94354D01*
Y116500D01*
X99000D01*
Y131500D01*
D02*
G37*
G36*
X96040Y76040D02*
X91270D01*
Y71270D01*
X96040D01*
Y76040D01*
D02*
G37*
G36*
X88730D02*
X83960D01*
Y71270D01*
X88730D01*
Y76040D01*
D02*
G37*
G36*
X126040D02*
X121270D01*
Y71270D01*
X126040D01*
Y76040D01*
D02*
G37*
G36*
X118730D02*
X113960D01*
Y71270D01*
X118730D01*
Y76040D01*
D02*
G37*
G36*
X63770Y50470D02*
Y46270D01*
X67970D01*
X67197Y48138D01*
X65638Y49697D01*
X63770Y50470D01*
D02*
G37*
G36*
X61230D02*
X59362Y49697D01*
X57803Y48138D01*
X57030Y46270D01*
X61230D01*
Y50470D01*
D02*
G37*
G36*
X172464Y88730D02*
X147536D01*
X147731Y87248D01*
X148793Y84684D01*
X150483Y82483D01*
X152684Y80793D01*
X155248Y79731D01*
X155646Y79679D01*
Y56803D01*
X142197Y43354D01*
X124354D01*
Y63960D01*
X126040D01*
Y68730D01*
X120000D01*
X113960D01*
Y63960D01*
X115646D01*
Y43354D01*
X102803D01*
X94354Y51803D01*
Y63960D01*
X96040D01*
Y68730D01*
X90000D01*
X83960D01*
Y63960D01*
X85646D01*
Y50000D01*
X85978Y48334D01*
X86922Y46922D01*
X97921Y35921D01*
X99334Y34978D01*
X101000Y34646D01*
X144000D01*
X145666Y34978D01*
X147079Y35921D01*
X163078Y51922D01*
X164022Y53334D01*
X164354Y55000D01*
Y79679D01*
X164751Y79731D01*
X167316Y80793D01*
X169517Y82483D01*
X171207Y84684D01*
X172269Y87248D01*
X172464Y88730D01*
D02*
G37*
G36*
X67970Y43730D02*
X63770D01*
Y39530D01*
X65638Y40303D01*
X67197Y41862D01*
X67970Y43730D01*
D02*
G37*
G36*
X61230D02*
X57030D01*
X57803Y41862D01*
X59362Y40303D01*
X61230Y39530D01*
Y43730D01*
D02*
G37*
%LPD*%
D11*
X120000Y39000D02*
X144000D01*
X101000D02*
X120000D01*
Y70000D01*
X160000Y55000D02*
Y90000D01*
X144000Y39000D02*
X160000Y55000D01*
X90000Y50000D02*
X101000Y39000D01*
X90000Y50000D02*
Y70000D01*
X119500Y84500D02*
Y123500D01*
Y84500D02*
X120000Y84000D01*
X119000Y124000D02*
X119500Y123500D01*
X90000Y84000D02*
Y124000D01*
X119000Y162000D02*
X143000D01*
X108500D02*
X119000D01*
Y145000D02*
Y162000D01*
X160000Y115400D02*
Y145000D01*
X143000Y162000D02*
X160000Y145000D01*
X91500D02*
X108500Y162000D01*
X90000Y145000D02*
X91500D01*
D13*
X90000Y84000D02*
D03*
Y70000D02*
D03*
X120000Y84000D02*
D03*
Y70000D02*
D03*
D14*
X119000Y124000D02*
D03*
Y145000D02*
D03*
X90000Y124000D02*
D03*
Y145000D02*
D03*
D19*
X160000Y90000D02*
D03*
D20*
Y115400D02*
D03*
D21*
X62500Y45000D02*
D03*
M02*
